<?xml version="1.0" encoding="UTF-8"?>
<svg width="171px" height="21px" viewBox="0 0 171 21" version="1.1" xmlns="http://www.w3.org/2000/svg" xmlns:xlink="http://www.w3.org/1999/xlink">
    <title>4E27AB9E-33C4-4943-B6D0-866AE997E9FD</title>
    <g id="Page-1" stroke="none" stroke-width="1" fill="none" fill-rule="evenodd">
        <g id="Support" transform="translate(-18.000000, -16.000000)" fill-rule="nonzero">
            <g id="idleonefficiency" transform="translate(18.814000, 16.180000)">
                <path d="M1.386,0 C1.782,0 2.11566667,0.135666667 2.387,0.407 C2.65833333,0.678333333 2.794,1.00833333 2.794,1.397 C2.794,1.78566667 2.65833333,2.11566667 2.387,2.387 C2.11566667,2.65833333 1.78566667,2.794 1.397,2.794 C1.00833333,2.794 0.678333333,2.65466667 0.407,2.376 C0.135666667,2.09733333 0,1.771 0,1.397 C0,1.023 0.135666667,0.696666667 0.407,0.418 C0.678333333,0.139333333 1.00466667,0 1.386,0 Z M2.31,16.5 L0.484,16.5 L0.484,4.51 L2.31,4.51 L2.31,16.5 Z" id="i" fill="#FF3E82"></path>
                <path d="M17.072,16.5 L15.29,16.5 L15.29,14.74 C13.9846667,16.1773333 12.4776667,16.896 10.769,16.896 C9.06033333,16.896 7.60466667,16.2726667 6.402,15.026 C5.19933333,13.7793333 4.598,12.2833333 4.598,10.538 C4.598,8.79266667 5.20666667,7.30033333 6.424,6.061 C7.64133333,4.82166667 9.12633333,4.202 10.879,4.202 C12.6316667,4.202 14.102,4.91333333 15.29,6.336 L15.29,0 L17.072,0 L17.072,16.5 Z M10.912,15.202 C12.0706667,15.202 13.1046667,14.7693333 14.014,13.904 C14.9233333,13.0386667 15.378,11.9423333 15.378,10.615 C15.378,9.28766667 14.9563333,8.18033333 14.113,7.293 C13.2696667,6.40566667 12.2063333,5.962 10.923,5.962 C9.63966667,5.962 8.569,6.42033333 7.711,7.337 C6.853,8.25366667 6.424,9.33166667 6.424,10.571 C6.424,11.8103333 6.864,12.892 7.744,13.816 C8.624,14.74 9.68,15.202 10.912,15.202 Z" id="d" fill="#FF3E82"></path>
                <polygon id="l" fill="#FF3E82" points="21.758 16.5 19.954 16.5 19.954 0 21.758 0"></polygon>
                <path d="M36.388,10.824 L25.872,10.824 C25.9453333,12.144 26.389,13.2036667 27.203,14.003 C28.017,14.8023333 28.9886667,15.202 30.118,15.202 C32.0393333,15.202 33.506,14.256 34.518,12.364 L36.058,13.156 C35.3686667,14.432 34.5546667,15.3743333 33.616,15.983 C32.6773333,16.5916667 31.5553333,16.896 30.25,16.896 C28.446,16.896 26.9573333,16.2763333 25.784,15.037 C24.6106667,13.7976667 24.024,12.3053333 24.024,10.56 C24.024,8.81466667 24.6143333,7.31866667 25.795,6.072 C26.9756667,4.82533333 28.4386667,4.202 30.184,4.202 C31.9293333,4.202 33.3886667,4.79233333 34.562,5.973 C35.7353333,7.15366667 36.344,8.77066667 36.388,10.824 Z M34.364,9.218 C34.144,8.19133333 33.6453333,7.392 32.868,6.82 C32.0906667,6.248 31.196,5.962 30.184,5.962 C28.1306667,5.962 26.7666667,7.04733333 26.092,9.218 L34.364,9.218 Z" id="e" fill="#FF3E82"></path>
                <path d="M44.572,4.202 C46.3026667,4.202 47.773,4.82533333 48.983,6.072 C50.193,7.31866667 50.798,8.81466667 50.798,10.56 C50.798,12.3053333 50.2003333,13.7976667 49.005,15.037 C47.8096667,16.2763333 46.332,16.896 44.572,16.896 C42.812,16.896 41.3306667,16.2763333 40.128,15.037 C38.9253333,13.7976667 38.324,12.3053333 38.324,10.56 C38.324,8.81466667 38.929,7.31866667 40.139,6.072 C41.349,4.82533333 42.8266667,4.202 44.572,4.202 Z M44.572,15.158 C45.7893333,15.158 46.827,14.7143333 47.685,13.827 C48.543,12.9396667 48.972,11.869 48.972,10.615 C48.972,9.361 48.5356667,8.27566667 47.663,7.359 C46.7903333,6.44233333 45.7563333,5.984 44.561,5.984 C43.3656667,5.984 42.3353333,6.44233333 41.47,7.359 C40.6046667,8.27566667 40.172,9.36466667 40.172,10.626 C40.172,11.8873333 40.59,12.958 41.426,13.838 C42.262,14.718 43.3106667,15.158 44.572,15.158 Z" id="o" fill="#FF3E82"></path>
                <path d="M63.8,16.5 L61.996,16.5 L61.996,10.78 C61.996,9.46 61.9336667,8.56166667 61.809,8.085 C61.6843333,7.60833333 61.501,7.205 61.259,6.875 C61.017,6.545 60.709,6.29933333 60.335,6.138 C59.961,5.97666667 59.5063333,5.896 58.971,5.896 C58.4356667,5.896 57.9113333,6.028 57.398,6.292 C56.8846667,6.556 56.4446667,6.92266667 56.078,7.392 C55.7113333,7.86133333 55.4583333,8.36 55.319,8.888 C55.1796667,9.416 55.11,10.472 55.11,12.056 L55.11,16.5 L53.284,16.5 L53.284,4.51 L55.11,4.51 L55.11,6.314 C56.298,4.906 57.706,4.202 59.334,4.202 C60.1993333,4.202 60.984,4.42566667 61.688,4.873 C62.392,5.32033333 62.92,5.93633333 63.272,6.721 C63.624,7.50566667 63.8,8.712 63.8,10.34 L63.8,16.5 Z" id="n" fill="#FF3E82"></path>
                <path d="M78.518,10.824 L68.002,10.824 C68.0753333,12.144 68.519,13.2036667 69.333,14.003 C70.147,14.8023333 71.1186667,15.202 72.248,15.202 C74.1693333,15.202 75.636,14.256 76.648,12.364 L78.188,13.156 C77.4986667,14.432 76.6846667,15.3743333 75.746,15.983 C74.8073333,16.5916667 73.6853333,16.896 72.38,16.896 C70.576,16.896 69.0873333,16.2763333 67.914,15.037 C66.7406667,13.7976667 66.154,12.3053333 66.154,10.56 C66.154,8.81466667 66.7443333,7.31866667 67.925,6.072 C69.1056667,4.82533333 70.5686667,4.202 72.314,4.202 C74.0593333,4.202 75.5186667,4.79233333 76.692,5.973 C77.8653333,7.15366667 78.474,8.77066667 78.518,10.824 Z M76.494,9.218 C76.274,8.19133333 75.7753333,7.392 74.998,6.82 C74.2206667,6.248 73.326,5.962 72.314,5.962 C70.2606667,5.962 68.8966667,7.04733333 68.222,9.218 L76.494,9.218 Z" id="e" fill="#0376E3"></path>
                <path d="M86.13,2.156 C85.426,1.86266667 84.876,1.716 84.48,1.716 C84.084,1.716 83.8273333,1.84433333 83.71,2.101 C83.5926667,2.35766667 83.534,2.78666667 83.534,3.388 L83.534,4.51 L85.976,4.51 L85.976,6.094 L83.534,6.094 L83.534,16.5 L81.708,16.5 L81.708,6.094 L80.19,6.094 L80.19,4.51 L81.708,4.51 L81.708,3.146 C81.708,2.06066667 81.9096667,1.265 82.313,0.759 C82.7163333,0.253 83.3506667,0 84.216,0 C84.6853333,0 85.3233333,0.11 86.13,0.33 L86.13,2.156 Z" id="f" fill="#0376E3"></path>
                <path d="M93.038,2.156 C92.334,1.86266667 91.784,1.716 91.388,1.716 C90.992,1.716 90.7353333,1.84433333 90.618,2.101 C90.5006667,2.35766667 90.442,2.78666667 90.442,3.388 L90.442,4.51 L92.884,4.51 L92.884,6.094 L90.442,6.094 L90.442,16.5 L88.616,16.5 L88.616,6.094 L87.098,6.094 L87.098,4.51 L88.616,4.51 L88.616,3.146 C88.616,2.06066667 88.8176667,1.265 89.221,0.759 C89.6243333,0.253 90.2586667,0 91.124,0 C91.5933333,0 92.2313333,0.11 93.038,0.33 L93.038,2.156 Z" id="f" fill="#0376E3"></path>
                <path d="M95.502,0 C95.898,0 96.2316667,0.135666667 96.503,0.407 C96.7743333,0.678333333 96.91,1.00833333 96.91,1.397 C96.91,1.78566667 96.7743333,2.11566667 96.503,2.387 C96.2316667,2.65833333 95.9016667,2.794 95.513,2.794 C95.1243333,2.794 94.7943333,2.65466667 94.523,2.376 C94.2516667,2.09733333 94.116,1.771 94.116,1.397 C94.116,1.023 94.2516667,0.696666667 94.523,0.418 C94.7943333,0.139333333 95.1206667,0 95.502,0 Z M96.426,16.5 L94.6,16.5 L94.6,4.51 L96.426,4.51 L96.426,16.5 Z" id="i" fill="#0376E3"></path>
                <path d="M110.946,14.058 C110.315333,14.982 109.490333,15.686 108.471,16.17 C107.451667,16.654 106.348,16.896 105.16,16.896 C103.312,16.896 101.768333,16.2873333 100.529,15.07 C99.2896667,13.8526667 98.67,12.364 98.67,10.604 C98.67,8.844 99.2933333,7.337 100.54,6.083 C101.786667,4.829 103.4,4.202 105.38,4.202 C106.553333,4.202 107.635,4.45866667 108.625,4.972 C109.615,5.48533333 110.388667,6.204 110.946,7.128 L109.516,8.03 C108.445333,6.63666667 107.044667,5.94 105.314,5.94 C103.95,5.94 102.806,6.37633333 101.882,7.249 C100.958,8.12166667 100.496,9.20333333 100.496,10.494 C100.496,11.7846667 100.950667,12.892 101.86,13.816 C102.769333,14.74 103.920667,15.202 105.314,15.202 C106.986,15.202 108.394,14.498 109.538,13.09 L110.946,14.058 Z" id="c" fill="#0376E3"></path>
                <path d="M114.136,0 C114.532,0 114.865667,0.135666667 115.137,0.407 C115.408333,0.678333333 115.544,1.00833333 115.544,1.397 C115.544,1.78566667 115.408333,2.11566667 115.137,2.387 C114.865667,2.65833333 114.535667,2.794 114.147,2.794 C113.758333,2.794 113.428333,2.65466667 113.157,2.376 C112.885667,2.09733333 112.75,1.771 112.75,1.397 C112.75,1.023 112.885667,0.696666667 113.157,0.418 C113.428333,0.139333333 113.754667,0 114.136,0 Z M115.06,16.5 L113.234,16.5 L113.234,4.51 L115.06,4.51 L115.06,16.5 Z" id="i" fill="#0376E3"></path>
                <path d="M129.668,10.824 L119.152,10.824 C119.225333,12.144 119.669,13.2036667 120.483,14.003 C121.297,14.8023333 122.268667,15.202 123.398,15.202 C125.319333,15.202 126.786,14.256 127.798,12.364 L129.338,13.156 C128.648667,14.432 127.834667,15.3743333 126.896,15.983 C125.957333,16.5916667 124.835333,16.896 123.53,16.896 C121.726,16.896 120.237333,16.2763333 119.064,15.037 C117.890667,13.7976667 117.304,12.3053333 117.304,10.56 C117.304,8.81466667 117.894333,7.31866667 119.075,6.072 C120.255667,4.82533333 121.718667,4.202 123.464,4.202 C125.209333,4.202 126.668667,4.79233333 127.842,5.973 C129.015333,7.15366667 129.624,8.77066667 129.668,10.824 Z M127.644,9.218 C127.424,8.19133333 126.925333,7.392 126.148,6.82 C125.370667,6.248 124.476,5.962 123.464,5.962 C121.410667,5.962 120.046667,7.04733333 119.372,9.218 L127.644,9.218 Z" id="e" fill="#0376E3"></path>
                <path d="M142.67,16.5 L140.866,16.5 L140.866,10.78 C140.866,9.46 140.803667,8.56166667 140.679,8.085 C140.554333,7.60833333 140.371,7.205 140.129,6.875 C139.887,6.545 139.579,6.29933333 139.205,6.138 C138.831,5.97666667 138.376333,5.896 137.841,5.896 C137.305667,5.896 136.781333,6.028 136.268,6.292 C135.754667,6.556 135.314667,6.92266667 134.948,7.392 C134.581333,7.86133333 134.328333,8.36 134.189,8.888 C134.049667,9.416 133.98,10.472 133.98,12.056 L133.98,16.5 L132.154,16.5 L132.154,4.51 L133.98,4.51 L133.98,6.314 C135.168,4.906 136.576,4.202 138.204,4.202 C139.069333,4.202 139.854,4.42566667 140.558,4.873 C141.262,5.32033333 141.79,5.93633333 142.142,6.721 C142.494,7.50566667 142.67,8.712 142.67,10.34 L142.67,16.5 Z" id="n" fill="#0376E3"></path>
                <path d="M157.3,14.058 C156.669333,14.982 155.844333,15.686 154.825,16.17 C153.805667,16.654 152.702,16.896 151.514,16.896 C149.666,16.896 148.122333,16.2873333 146.883,15.07 C145.643667,13.8526667 145.024,12.364 145.024,10.604 C145.024,8.844 145.647333,7.337 146.894,6.083 C148.140667,4.829 149.754,4.202 151.734,4.202 C152.907333,4.202 153.989,4.45866667 154.979,4.972 C155.969,5.48533333 156.742667,6.204 157.3,7.128 L155.87,8.03 C154.799333,6.63666667 153.398667,5.94 151.668,5.94 C150.304,5.94 149.16,6.37633333 148.236,7.249 C147.312,8.12166667 146.85,9.20333333 146.85,10.494 C146.85,11.7846667 147.304667,12.892 148.214,13.816 C149.123333,14.74 150.274667,15.202 151.668,15.202 C153.34,15.202 154.748,14.498 155.892,13.09 L157.3,14.058 Z" id="c" fill="#0376E3"></path>
                <polygon id="y" fill="#0376E3" points="170.038 4.51 162.932 20.746 161.04 20.746 163.35 15.466 158.488 4.51 160.38 4.51 164.318 13.288 168.124 4.51"></polygon>
            </g>
        </g>
    </g>
</svg>