<?xml version="1.0" encoding="UTF-8"?>
<svg width="13px" height="16px" viewBox="0 0 13 16" version="1.1" xmlns="http://www.w3.org/2000/svg" xmlns:xlink="http://www.w3.org/1999/xlink">
    <title>2981420F-4BC6-4A9B-A9ED-41FEDD70AC85</title>
    <g id="Page-1" stroke="none" stroke-width="1" fill="none" fill-rule="evenodd">
        <g id="Quests-Copy-2" transform="translate(-294.000000, -771.000000)" fill="#0274DF" fill-rule="nonzero">
            <g id="Group-Copy" transform="translate(86.000000, 762.000000)">
                <path d="M221,23.4170768 C221,23.5679362 220.595069,24.0037489 219.342429,24.3878237 C218.057012,24.7821039 216.338307,25 214.5,25 C212.661693,25 210.943081,24.7828129 209.657571,24.3878237 C208.404912,24.0037489 208,23.567938 208,23.4170768 C208,23.3267056 208.209746,22.9878146 209.14195,22.6248783 C209.986751,22.2954688 211.162969,22.0505945 212.481106,21.9274204 C213.336833,23.2538273 214.006864,24.1933236 214.015608,24.2063835 C214.127763,24.3623456 214.307649,24.4556235 214.499925,24.4556235 C214.692202,24.4556235 214.87208,24.3630676 214.984243,24.2063835 C214.993711,24.1932654 215.663727,23.253846 216.518744,21.9274204 C217.830393,22.0505871 219.002883,22.2939949 219.847646,22.6212402 C220.787868,22.9849041 220.999795,23.3267019 220.999795,23.4170768 L221,23.4170768 Z M214.500112,22.8187833 C212.862937,20.4311967 209.859412,15.640057 209.859412,13.6439353 C209.859412,11.0828771 211.941584,9 214.500112,9 C217.05864,9 219.140812,11.0828771 219.140812,13.6439353 C219.140812,15.2021006 217.311361,18.4626876 215.729503,20.954528 C215.716394,20.9734762 215.703286,20.9931538 215.691633,21.0135609 C215.260489,21.6913355 214.849014,22.3093515 214.500164,22.8187833 L214.500112,22.8187833 Z M212.753683,13.294115 C212.753683,14.2575856 213.537313,15.0417616 214.500112,15.0417616 C215.462911,15.0417616 216.246541,14.2575856 216.246541,13.294115 C216.246541,12.3299168 215.462911,11.5464684 214.500112,11.5464684 C213.537313,11.5464684 212.753683,12.3306444 212.753683,13.294115 L212.753683,13.294115 Z" id="map"></path>
            </g>
        </g>
    </g>
</svg>