<?xml version="1.0" encoding="UTF-8"?>
<svg width="15px" height="15px" viewBox="0 0 15 15" version="1.1" xmlns="http://www.w3.org/2000/svg" xmlns:xlink="http://www.w3.org/1999/xlink">
    <title>CD666F55-818F-4445-8694-93DFFCF24E05</title>
    <g id="Page-1" stroke="none" stroke-width="1" fill="none" fill-rule="evenodd">
        <g id="Quests-Copy-2" transform="translate(-293.000000, -882.000000)" fill="#0274DF" fill-rule="nonzero">
            <g id="Group-Copy" transform="translate(86.000000, 762.000000)">
                <path d="M214.519564,120 C210.37617,120 207,123.376093 207,127.519564 C207,131.663035 210.376093,135 214.480436,135 C218.584778,135 222,131.623907 222,127.519564 C222,123.37617 218.662882,120 214.519564,120 Z M218.585085,126.75234 L217.050637,128.171398 C216.974214,128.247821 216.935254,128.363204 216.935254,128.51605 L217.357841,130.549501 C217.473224,131.048504 216.935254,131.432116 216.514201,131.163894 L214.711531,130.128449 C214.596149,130.052025 214.480766,130.052025 214.366879,130.128449 L212.564209,131.163894 C212.141622,131.39466 211.605179,131.048512 211.720569,130.549501 L212.143156,128.51605 C212.182116,128.400667 212.143156,128.285285 212.027774,128.171398 L210.493325,126.75234 C210.109713,126.407688 210.340479,125.79331 210.837978,125.754335 L212.908869,125.523569 C213.024252,125.523569 213.139635,125.447146 213.177098,125.331763 L214.020738,123.413703 C214.212544,122.953675 214.864378,122.953675 215.095159,123.413703 L215.977774,125.331763 C216.016733,125.447146 216.13062,125.523569 216.246003,125.523569 L218.316894,125.754335 C218.776922,125.793294 218.968728,126.445143 218.585124,126.75234 L218.585085,126.75234 Z" id="points"></path>
            </g>
        </g>
    </g>
</svg>