<?xml version="1.0" encoding="UTF-8"?>
<svg width="14px" height="18px" viewBox="0 0 14 18" version="1.1" xmlns="http://www.w3.org/2000/svg" xmlns:xlink="http://www.w3.org/1999/xlink">
    <title>8810377D-4D40-426D-A9AC-CCC49F882468</title>
    <g id="Page-1" stroke="none" stroke-width="1" fill="none" fill-rule="evenodd">
        <g id="Quests-Copy-2" transform="translate(-293.000000, -824.000000)" fill="#0274DF" fill-rule="nonzero">
            <g id="Group-5-Copy-16" transform="translate(86.000000, 762.000000)">
                <g id="user" transform="translate(207.000000, 62.000000)">
                    <path d="M7.00030209,8.8027543 C9.04682665,8.8027543 10.7065789,6.83200722 10.7065789,4.40137715 C10.7065789,1.97074708 10.1615078,0 7.00030209,0 C3.83909634,0 3.29402532,1.97074708 3.29402532,4.40137715 C3.29402532,6.83200722 4.9537039,8.8027543 7.00030209,8.8027543 Z" id="Path"></path>
                    <path d="M13.9920267,15.3458722 C13.9237129,11.1111689 13.3577827,9.90467353 9.02952222,9.14096178 C9.02952222,9.14096178 8.42044323,9.90031769 7.00030209,9.90031769 C5.58016095,9.90031769 4.97108196,9.14096178 4.97108196,9.14096178 C0.690261419,9.89608784 0.0897610051,11.0850699 0.0107865485,15.2087173 C0.00431469304,15.5455028 0.00143829238,15.5630882 0,15.5237056 C0,15.5968279 0.000719054143,15.7325339 0.000719054143,15.9687752 C0.000719054143,15.9687752 1.03119765,18 7.00035953,18 C12.9695214,18 14,15.9687752 14,15.9687752 L14,15.6397293 C13.9992808,15.6629323 13.9964044,15.6165264 13.9920899,15.3458362 L13.9920267,15.3458722 Z" id="Path"></path>
                </g>
            </g>
        </g>
    </g>
</svg>